<?xml version="1.0" encoding="utf-8"?>
<svg class="svg-icon icon-sell" version="1.1" id="Layer_1" xmlns="http://www.w3.org/2000/svg" xmlns:xlink="http://www.w3.org/1999/xlink" x="0px" y="0px"
	 viewBox="0 0 26.3 16" xml:space="preserve" style="fill:#A41D23;">
<path d="M25.3,1v14H5.7L1,11.2V3.7L5.8,1H25.3 M26.3,0H5.6L0,3.1v8.5L5.4,16h20.9V0L26.3,0z M15.4,11.1c-1-0.1-1.8-0.5-2.3-1
	l0.5-0.6c0.4,0.4,1,0.8,1.8,0.9V7.9c-1-0.3-2.1-0.6-2.1-1.8c0-1,0.9-1.7,2.1-1.8V3.4H16v0.9c0.8,0.1,1.5,0.4,2,0.9l-0.5,0.6
	C17.1,5.3,16.6,5.1,16,5v2.2c1,0.3,2.1,0.7,2.1,2c0,0.9-0.6,1.8-2.1,1.9v0.9h-0.6V11.1z M15.4,7V5c-0.7,0-1.2,0.5-1.2,1
	C14.2,6.6,14.7,6.8,15.4,7z M16,8.1v2.3c0.9-0.1,1.3-0.7,1.3-1.1C17.3,8.6,16.7,8.3,16,8.1z M5.9,10.1c-1.2,0-2.1-1-2.1-2.1
	c0-1.2,1-2.1,2.1-2.1S8,6.8,8,7.9C8,9.1,7.1,10.1,5.9,10.1z M5.9,6.8c-0.6,0-1.1,0.5-1.1,1.1c0,0.6,0.5,1.1,1.1,1.1S7,8.6,7,7.9
	C7,7.3,6.5,6.8,5.9,6.8z"/>
</svg>
