<svg xmlns="http://www.w3.org/2000/svg" x="0px" y="0px"
     width="30" height="30"
     viewBox="0 0 210 210"
     style=" fill:#000000;"><g fill="none" fill-rule="nonzero" stroke="none" stroke-width="1" stroke-linecap="butt" stroke-linejoin="miter" stroke-miterlimit="10" stroke-dasharray="" stroke-dashoffset="0" font-family="none" font-weight="none" font-size="none" text-anchor="none" style="mix-blend-mode: normal"><path d="M0,210v-210h210v210z" fill="none"></path><g fill="#656565"><path d="M71.16211,48.53516c-2.04324,-0.19556 -4.11239,0.52194 -5.61914,2.02344l-49.49219,49.49219c-2.737,2.737 -2.737,7.16143 0,9.89843l49.49219,49.49219c1.337,1.337 3.12922,2.05078 4.94922,2.05078c0.903,0 1.81169,-0.16253 2.67969,-0.51953c2.618,-1.078 4.32031,-3.6388 4.32031,-6.4668v-28.50586h105c7.73501,0 14,-6.265 14,-14v-14c0,-7.735 -6.26499,-14 -14,-14h-105v-28.49219c0,-2.828 -1.70231,-5.3888 -4.32031,-6.4668c-0.6545,-0.273 -1.32869,-0.44067 -2.00976,-0.50586z"></path></g></g></svg>