<?xml version="1.0" encoding="utf-8"?>
<svg version="1.1" class="svg-icon icon-menu-on" xmlns="http://www.w3.org/2000/svg" xmlns:xlink="http://www.w3.org/1999/xlink" x="0px" y="0px"
	 viewBox="0 0 24.4 19.2" xml:space="preserve" style="fill:#ffffff;">
<g>
	<path d="M10.7,8.1c-0.3,0.3-0.5,0.6-0.6,1.1c-0.2,1.2,0.5,2.3,1.7,2.6c1.1,0.2,2.3-0.5,2.6-1.7c0.3-1.2-0.4-2.3-1.6-2.5
		C11.9,7.3,11.2,7.6,10.7,8.1"/>
	<path d="M19.5,16.9c-0.2,0.2-0.3,0.4-0.4,0.7c-0.1,0.7,0.4,1.4,1.1,1.6c0.7,0.1,1.5-0.4,1.6-1.1c0.1-0.7-0.3-1.4-1.1-1.6
		C20.2,16.4,19.8,16.5,19.5,16.9"/>
	<path d="M3.1,0.4C2.9,0.6,2.7,0.8,2.6,1.1C2.5,1.9,3,2.6,3.7,2.7c0.7,0.1,1.5-0.4,1.6-1.1C5.4,0.8,5,0.2,4.2,0
		C3.7-0.1,3.4,0.1,3.1,0.4"/>
	<path d="M19.4,2.3c0.2,0.2,0.4,0.3,0.7,0.4c0.7,0.1,1.4-0.4,1.6-1.1c0.1-0.7-0.4-1.5-1.1-1.6c-0.7-0.1-1.4,0.3-1.6,1.1
		C19,1.6,19.1,2,19.4,2.3"/>
	<path d="M3,18.7c0.2,0.2,0.4,0.3,0.7,0.4c0.7,0.1,1.4-0.4,1.6-1.1c0.1-0.7-0.4-1.5-1.1-1.6c-0.7-0.1-1.4,0.3-1.6,1.1
		C2.5,18,2.7,18.4,3,18.7"/>
</g>
</svg>
