<?xml version="1.0" encoding="utf-8"?>
<svg version="1.1" class="svg-icon icon-menu-off" xmlns="http://www.w3.org/2000/svg" xmlns:xlink="http://www.w3.org/1999/xlink" x="0px" y="0px"
	 viewBox="0 0 24.4 19.2" xml:space="preserve" style="fill:#898b8e;">
<path d="M10.7,8.1c-0.3,0.3-0.5,0.6-0.6,1.1c-0.2,1.2,0.5,2.3,1.7,2.6c1.1,0.2,2.3-0.5,2.6-1.7c0.3-1.2-0.4-2.3-1.6-2.5
	C11.9,7.3,11.2,7.6,10.7,8.1"/>
<path d="M0.8,7.7C0.4,8.1,0.2,8.5,0.1,9c-0.3,1.4,0.6,2.9,2.1,3.2c1.4,0.3,2.8-0.6,3.1-2c0.3-1.4-0.5-2.8-2-3.1
	C2.4,6.8,1.4,7.1,0.8,7.7"/>
<path d="M19.4,10.5c0.2,0.2,0.4,0.3,0.7,0.4c0.7,0.1,1.4-0.4,1.6-1.1c0.1-0.7-0.4-1.5-1.1-1.6c-0.7-0.1-1.4,0.3-1.6,1.1
	C19,9.8,19.1,10.2,19.4,10.5"/>
</svg>
