<svg xmlns="http://www.w3.org/2000/svg" x="0px" y="0px"
     width="30" height="30"
     viewBox="0 0 210 210"
     style=" fill:#000000;"><g fill="none" fill-rule="nonzero" stroke="none" stroke-width="1" stroke-linecap="butt" stroke-linejoin="miter" stroke-miterlimit="10" stroke-dasharray="" stroke-dashoffset="0" font-family="none" font-weight="none" font-size="none" text-anchor="none" style="mix-blend-mode: normal"><path d="M0,210v-210h210v210z" fill="none"></path><g fill="#656565"><path d="M140,48.49414c-0.903,0 -1.81169,0.1692 -2.67968,0.5332c-2.618,1.078 -4.32032,3.6388 -4.32032,6.4668v28.49219h-105c-7.735,0 -14,6.265 -14,14v14c0,7.735 6.265,14 14,14h105v28.50586c0,2.828 1.70231,5.3888 4.32032,6.4668c2.61799,1.092 5.6199,0.48442 7.6289,-1.51758l49.49219,-49.50586c2.737,-2.737 2.737,-7.14776 0,-9.88476l-49.49219,-49.50586c-1.337,-1.337 -3.12922,-2.05078 -4.94922,-2.05078z"></path></g></g></svg>