<?xml version="1.0" encoding="utf-8"?>
<svg class="svg-icon icon-user" version="1.1" id="Layer_1" xmlns="http://www.w3.org/2000/svg" xmlns:xlink="http://www.w3.org/1999/xlink" x="0px" y="0px"
	 viewBox="0 0 18 18" xml:space="preserve" style="fill:#A41D23;">
<g>
	<g>
		<path d="M9,10.1c-1.7,0-3.2-1.4-3.2-3.1c0-1.7,1.4-3.1,3.2-3.1s3.2,1.4,3.2,3.1C12.2,8.7,10.7,10.1,9,10.1z M9,4.9
			C7.8,4.9,6.8,5.9,6.8,7s1,2.1,2.2,2.1c1.2,0,2.2-0.9,2.2-2.1S10.2,4.9,9,4.9z"/>
	</g>
	<path d="M9,0C4,0,0,4,0,9c0,5,4,9,9,9c5,0,9-4,9-9C18,4,14,0,9,0z M4.5,15.6C5.2,13.7,7,12.5,9,12.5c2,0,3.8,1.2,4.5,3
		C12.3,16.5,10.7,17,9,17C7.3,17,5.7,16.5,4.5,15.6z M14.4,14.9c-1-2.1-3-3.4-5.4-3.4c-2.3,0-4.4,1.3-5.4,3.4C2,13.5,1,11.4,1,9
		c0-4.4,3.6-8,8-8c4.4,0,8,3.6,8,8C17,11.3,16,13.5,14.4,14.9z"/>
</g>
</svg>
