<?xml version="1.0" standalone="no"?>
<!DOCTYPE svg PUBLIC "-//W3C//DTD SVG 1.1//EN" "http://www.w3.org/Graphics/SVG/1.1/DTD/svg11.dtd">
<svg width="100%" height="100%" viewBox="0 0 258 173" version="1.1" xmlns="http://www.w3.org/2000/svg" xmlns:xlink="http://www.w3.org/1999/xlink" xml:space="preserve" style="fill-rule:evenodd;clip-rule:evenodd;stroke-linejoin:round;stroke-miterlimit:1.41421;fill:#898b8e;">
    <g id="Page 7" transform="matrix(4.16667,0,0,4.16667,-38,-80)">
        <g id="Layer 1">
            <path d="M20.019,24.961L10,19.999L10,21.184L17.604,24.961L20.019,24.961Z" style="fill-rule:nonzero;"/>
            <path d="M36.307,20L27.456,20L27.456,24.377L36.307,20Z" style="fill-rule:nonzero;"/>
            <path d="M22.471,20L13.62,20L22.471,24.377L22.471,20Z" style="fill-rule:nonzero;"/>
            <path d="M10,21.808L10,24.958L16.327,24.958L10,21.808Z" style="fill-rule:nonzero;"/>
            <path d="M27.604,24.961L29.998,24.961L39.958,19.999L37.603,19.999L27.604,24.961Z" style="fill-rule:nonzero;"/>
            <path d="M62.586,32.91L61.657,31.947L60.735,32.91L60.913,31.597L59.59,31.48L60.727,30.805L59.994,29.7L61.245,30.173L61.657,28.908L62.069,30.173L63.327,29.7L62.588,30.805L63.731,31.48L62.402,31.597L62.586,32.91ZM58.766,37.171L57.995,36.616L57.228,37.175L57.524,36.278L56.746,35.722L57.702,35.72L57.99,34.823L58.287,35.722L59.24,35.72L58.469,36.268L58.766,37.171ZM55.92,46.68L54.991,45.718L54.068,46.68L54.247,45.367L52.923,45.25L54.061,44.575L53.328,43.47L54.579,43.943L54.991,42.679L55.403,43.943L56.66,43.47L55.922,44.575L57.065,45.25L55.736,45.367L55.92,46.68ZM48.42,34.899L47.492,33.937L46.569,34.899L46.747,33.586L45.424,33.469L46.561,32.794L45.828,31.689L47.08,32.162L47.492,30.898L47.904,32.162L49.161,31.689L48.422,32.794L49.565,33.469L48.236,33.586L48.42,34.899ZM53.328,23.628L54.579,24.102L54.991,22.837L55.403,24.102L56.66,23.628L55.922,24.733L57.065,25.409L55.736,25.525L55.92,26.839L54.991,25.876L54.068,26.839L54.247,25.525L52.923,25.409L54.061,24.733L53.328,23.628ZM39.958,29.92L33.599,29.92L39.958,33.07L39.958,33.697L32.391,29.92L29.987,29.92L39.958,34.879L36.307,34.879L27.456,30.501L27.456,34.879L26.462,34.879L26.462,28.893L39.958,28.893L39.958,29.92ZM26.959,46.302L25,44.272L23.054,46.302L23.43,43.533L20.639,43.286L23.038,41.862L21.492,39.531L24.131,40.529L25,37.862L25.869,40.529L28.52,39.531L26.962,41.862L29.374,43.286L26.57,43.533L26.959,46.302ZM39.958,20L39.958,21.808L33.599,24.958L39.958,24.958L39.958,25.988L26.462,25.988L26.462,20L23.533,20L23.533,25.988L10,25.988L10,28.893L23.533,28.893L23.533,34.879L22.471,34.879L22.471,30.501L13.62,34.879L12.393,34.879L22.392,29.92L19.998,29.92L10,34.879L10,60L70,60L70,20L39.958,20Z" style="fill-rule:nonzero;"/>
            <path d="M10,29.92L10,33.07L16.327,29.92L10,29.92Z" style="fill-rule:nonzero;"/>
        </g>
    </g>
</svg>
