<?xml version="1.0" standalone="no"?>
<!DOCTYPE svg PUBLIC "-//W3C//DTD SVG 1.1//EN" "http://www.w3.org/Graphics/SVG/1.1/DTD/svg11.dtd">
<svg width="100%" height="100%" viewBox="0 0 258 173" version="1.1" xmlns="http://www.w3.org/2000/svg" xmlns:xlink="http://www.w3.org/1999/xlink" xml:space="preserve" style="fill-rule:evenodd;clip-rule:evenodd;stroke-linejoin:round;stroke-miterlimit:1.41421;fill:#898b8e;">
    <g id="Page 2" transform="matrix(4.16667,0,0,4.16667,-38,-80)">
        <g id="Layer 1">
            <rect x="55.076" y="20" width="14.924" height="40" />
            <rect x="10" y="20" width="14.925" height="40" />
            <path d="M40.57,54.046C40.421,51.562 40.354,49.957 40.299,48.405C40.267,47.742 40.843,47.805 41.266,47.873C44.8,48.427 46.465,48.686 46.465,48.686C44.633,45.182 49.237,43.486 51.604,41.448C49.769,40.82 50.02,41.05 51.201,36.59C47.371,37.821 47.684,37.462 46.871,35.537C46.871,35.537 46.573,35.881 44.177,38.621C43.835,39.013 43.262,38.75 43.382,38.153C44.631,31.9 44.693,31.646 44.693,31.646C42.262,33.132 42.352,33.216 41.967,32.45C40.632,29.818 40,28.521 40,28.521C40,28.521 39.368,29.818 38.033,32.45C37.647,33.216 37.738,33.132 35.306,31.646C35.306,31.646 35.369,31.9 36.617,38.153C36.738,38.75 36.165,39.013 35.823,38.621C33.426,35.881 33.129,35.537 33.129,35.537C32.315,37.462 32.632,37.821 28.799,36.59C29.98,41.05 30.231,40.82 28.396,41.448C30.763,43.486 35.367,45.182 33.534,48.686C33.534,48.686 35.2,48.427 38.734,47.873C39.157,47.805 39.733,47.742 39.7,48.405C39.646,49.957 39.578,51.562 39.429,54.046L40.57,54.046Z" />
            <path d="M55.076,20L24.924,20L24.924,60L55.076,60L55.076,20ZM54.076,59L25.924,59L25.924,21L54.076,21L54.076,59Z" style="fill-rule:nonzero;"/>
        </g>
    </g>
</svg>
