<?xml version="1.0" standalone="no"?>
<!DOCTYPE svg PUBLIC "-//W3C//DTD SVG 1.1//EN" "http://www.w3.org/Graphics/SVG/1.1/DTD/svg11.dtd">
<svg width="100%" height="100%" viewBox="0 0 258 173" version="1.1" xmlns="http://www.w3.org/2000/svg" xmlns:xlink="http://www.w3.org/1999/xlink" xml:space="preserve" style="fill-rule:evenodd;clip-rule:evenodd;stroke-linejoin:round;stroke-miterlimit:1.41421;fill:#898b8e;">
    <g id="Page 8" transform="matrix(4.16667,0,0,4.16667,-38,-80)">
        <g id="Layer 1">
            <path d="M31.979,28.661L31.374,29.967L31.126,28.553L29.748,28.297L30.979,27.646L30.742,26.253L31.731,27.247L32.963,26.595L32.38,27.89L33.381,28.905L31.979,28.661ZM32.695,35.717L31.563,34.842L30.432,35.717L30.856,34.347L29.75,33.472L31.139,33.472L31.563,32.126L31.988,33.472L33.377,33.472L32.27,34.347L32.695,35.717ZM28.14,24.434L28.04,25.874L27.306,24.646L25.929,24.913L26.845,23.854L26.13,22.643L27.406,23.207L28.322,22.147L28.239,23.567L29.534,24.149L28.14,24.434ZM28.058,38.701L27.957,40.134L27.22,38.899L25.852,39.29L26.742,38.174L26.029,36.948L27.321,37.466L28.202,36.372L28.111,37.783L29.402,38.299L28.058,38.701ZM20.932,34.973L17.492,32.314L14.052,34.973L15.342,30.806L11.981,28.148L16.202,28.148L17.492,24.06L18.782,28.148L23.003,28.148L19.642,30.806L20.932,34.973ZM10,60.001L70,60.001L70,20.001L10,20.001L10,60.001Z" style="fill-rule:nonzero;"/>
        </g>
    </g>
</svg>
