<?xml version="1.0" standalone="no"?>
<!DOCTYPE svg PUBLIC "-//W3C//DTD SVG 1.1//EN" "http://www.w3.org/Graphics/SVG/1.1/DTD/svg11.dtd">
<svg width="100%" height="100%" viewBox="0 0 258 173" version="1.1" xmlns="http://www.w3.org/2000/svg" xmlns:xlink="http://www.w3.org/1999/xlink" xml:space="preserve" style="fill-rule:evenodd;clip-rule:evenodd;stroke-linejoin:round;stroke-miterlimit:1.41421;fill:#898b8e;">
    <g id="Page 3" transform="matrix(4.16667,0,0,4.16667,-38,-80)">
        <g id="Layer 1">
            <path d="M54.34,41.806L53.074,40.88L51.81,41.806L52.291,40.312L51.005,39.388L52.59,39.39L53.074,37.874L53.56,39.388L55.145,39.388L53.859,40.312L54.34,41.806ZM52.601,48.387L51.335,47.462L50.069,48.387L50.552,46.893L49.266,45.969L50.849,45.971L51.335,44.455L51.821,45.969L53.405,45.969L52.119,46.893L52.601,48.387ZM47.336,28.984L47.817,30.478L46.552,29.553L45.285,30.478L45.766,28.984L44.481,28.059L46.066,28.062L46.551,26.546L47.035,28.059L48.622,28.059L47.336,28.984ZM47.798,53.19L46.532,52.266L45.266,53.19L45.747,51.696L44.463,50.772L46.047,50.774L46.532,49.26L47.017,50.772L48.602,50.772L47.316,51.696L47.798,53.19ZM41.254,54.93L39.989,54.006L38.723,54.93L39.204,53.436L37.919,52.512L39.504,52.514L39.988,50.998L40.474,52.512L42.059,52.512L40.773,53.436L41.254,54.93ZM39.503,26.3L39.988,24.786L40.473,26.298L42.058,26.298L40.772,27.222L41.254,28.716L39.988,27.792L38.722,28.716L39.203,27.222L37.918,26.298L39.503,26.3ZM34.711,53.19L33.446,52.266L32.18,53.19L32.661,51.696L31.376,50.772L32.961,50.774L33.445,49.26L33.93,50.772L35.515,50.772L34.23,51.696L34.711,53.19ZM32.95,28.06L33.435,26.545L33.92,28.059L35.505,28.059L34.22,28.982L34.701,30.477L33.436,29.553L32.17,30.477L32.651,28.982L31.366,28.059L32.95,28.06ZM29.427,33.787L29.908,35.281L28.642,34.357L27.376,35.281L27.858,33.787L26.573,32.863L28.157,32.865L28.642,31.349L29.128,32.863L30.712,32.863L29.427,33.787ZM29.908,48.387L28.642,47.462L27.376,48.387L27.858,46.893L26.573,45.969L28.157,45.971L28.642,44.455L29.128,45.969L30.712,45.969L29.427,46.893L29.908,48.387ZM24.814,39.406L26.399,39.41L26.884,37.892L27.369,39.406L28.953,39.406L27.668,40.33L28.149,41.824L26.884,40.9L25.618,41.824L26.1,40.33L24.814,39.406ZM50.849,32.847L51.335,31.331L51.821,32.845L53.405,32.845L52.119,33.767L52.601,35.261L51.335,34.337L50.069,35.261L50.552,33.767L49.266,32.845L50.849,32.847ZM10.002,59.999L69.998,59.999L69.998,20.001L10.002,20.001L10.002,59.999Z" style="fill-rule:nonzero;"/>
        </g>
    </g>
</svg>
