<?xml version="1.0" standalone="no"?>
<!DOCTYPE svg PUBLIC "-//W3C//DTD SVG 1.1//EN" "http://www.w3.org/Graphics/SVG/1.1/DTD/svg11.dtd">
<svg width="100%" height="100%" viewBox="0 0 258 173" version="1.1" xmlns="http://www.w3.org/2000/svg" xmlns:xlink="http://www.w3.org/1999/xlink" xml:space="preserve" style="fill-rule:evenodd;clip-rule:evenodd;stroke-linejoin:round;stroke-miterlimit:1.41421;fill:#898b8e;">
    <g id="Page 4" transform="matrix(4.16667,0,0,4.16667,-38,-80)">
        <g id="Layer 1">
            <path d="M52.759,38.709C52.635,39.573 52.149,40.454 51.994,40.562C51.952,40.592 51.992,40.333 52.008,40.233C52.026,40.122 52.005,40.089 52.034,39.878C52.068,39.628 51.966,39.258 51.827,39.129C51.634,38.951 51.464,38.934 51.334,38.907C51.171,38.874 51.125,38.849 50.842,38.945C50.602,39.027 50.222,39.159 49.955,39.468C49.885,39.55 49.76,39.649 49.668,39.784C49.487,40.047 49.248,40.381 48.974,40.632C48.609,40.968 48.206,41.191 48.042,41.221L47.624,41.399C47.06,41.632 45.508,41.749 44.395,40.873C44.151,40.68 43.846,40.484 43.591,40.251C43.221,39.914 42.857,39.638 42.33,39.546C42.016,39.492 41.733,39.619 41.441,39.727C40.919,39.92 40.46,40.25 40.241,40.473L40.073,40.632C40.035,40.572 40.057,40.528 40.073,40.488L40.187,40.283C40.339,39.977 40.83,39.552 41.267,39.2C41.616,38.917 42.205,38.571 42.626,38.435C43.363,38.198 44.021,38.161 44.446,38.13C45.083,38.084 45.167,38.102 45.357,38.11L45.387,38.113C45.412,38.104 45.435,38.102 45.447,38.075C45.472,38.021 45.449,37.959 45.397,37.935L45.365,37.931C45.177,37.875 44.812,37.897 44.181,37.934C43.659,37.964 43.126,38.025 42.415,38.328C42.008,38.501 41.39,38.792 41.056,39.092C40.578,39.519 40.177,39.93 40.021,40.191L39.883,40.363C39.853,40.386 39.837,40.41 39.833,40.435L39.828,40.456C39.723,40.471 39.943,39.693 40.7,38.546C41.3,37.636 42.076,36.651 42.653,36.232L42.638,36.213C43.362,35.567 44.244,35.01 44.676,34.823C45.287,34.558 45.921,34.339 46.299,34.2C46.847,33.997 47.5,33.945 48.238,33.895C49.807,33.791 51.545,34.808 52.233,35.9C52.799,36.798 52.894,37.771 52.759,38.709M47.909,51.395C47.202,52.187 46.293,52.546 45.354,52.674C44.489,52.793 43.509,52.568 43.361,52.45C43.321,52.417 43.581,52.385 43.682,52.372C43.794,52.359 43.82,52.33 44.03,52.299C44.28,52.263 44.608,52.063 44.693,51.894C44.811,51.659 44.781,51.491 44.771,51.36C44.758,51.193 44.77,51.142 44.599,50.896C44.455,50.688 44.223,50.36 43.852,50.188C43.754,50.143 43.625,50.05 43.47,49.998C43.166,49.897 42.78,49.759 42.463,49.565C42.04,49.307 41.714,48.981 41.64,48.831L41.354,48.478C40.975,48.001 40.435,46.54 40.972,45.23C41.089,44.942 41.194,44.594 41.347,44.285C41.57,43.837 41.735,43.411 41.678,42.879C41.644,42.562 41.444,42.325 41.26,42.074C40.931,41.625 40.488,41.275 40.212,41.126L40.013,41.008C40.061,40.954 40.108,40.964 40.151,40.969L40.38,41.022C40.716,41.083 41.26,41.439 41.719,41.761C42.086,42.02 42.581,42.49 42.828,42.858C43.259,43.501 43.475,44.123 43.622,44.524C43.841,45.123 43.848,45.209 43.892,45.394L43.897,45.423C43.913,45.445 43.921,45.467 43.951,45.471C44.009,45.479 44.063,45.441 44.071,45.384L44.066,45.352C44.069,45.156 43.947,44.811 43.738,44.214C43.565,43.721 43.36,43.226 42.873,42.625C42.595,42.281 42.144,41.768 41.765,41.529C41.222,41.187 40.717,40.915 40.423,40.837L40.219,40.751C40.189,40.729 40.162,40.72 40.137,40.723L40.115,40.724C40.072,40.628 40.88,40.624 42.192,41.037C43.231,41.363 44.392,41.838 44.953,42.277L44.967,42.257C45.788,42.776 46.566,43.47 46.865,43.834C47.287,44.349 47.673,44.898 47.911,45.223C48.256,45.694 48.486,46.307 48.737,47.004C49.27,48.483 48.769,50.433 47.909,51.395M40.167,46.107C39.986,47.06 39.625,48.039 39.395,48.45C39.071,49.032 38.702,49.592 38.487,49.933C38.175,50.427 37.689,50.866 37.133,51.354C35.952,52.391 33.953,52.641 32.743,52.193C31.747,51.825 31.08,51.111 30.616,50.284C30.189,49.523 30.039,48.529 30.096,48.348C30.111,48.299 30.237,48.529 30.285,48.618C30.339,48.717 30.375,48.731 30.481,48.915C30.606,49.134 30.912,49.366 31.101,49.384C31.362,49.408 31.507,49.318 31.626,49.26C31.776,49.187 31.828,49.179 31.994,48.931C32.135,48.72 32.356,48.384 32.38,47.976C32.386,47.868 32.424,47.714 32.416,47.551C32.399,47.231 32.386,46.822 32.45,46.455C32.535,45.967 32.719,45.545 32.831,45.421L33.055,45.025C33.361,44.498 34.521,43.46 35.937,43.479C36.248,43.483 36.61,43.453 36.954,43.482C37.453,43.525 37.91,43.523 38.383,43.275C38.666,43.127 38.813,42.854 38.979,42.591C39.276,42.12 39.439,41.579 39.477,41.268L39.514,41.04C39.581,41.064 39.59,41.112 39.601,41.154L39.636,41.387C39.702,41.721 39.57,42.358 39.438,42.903C39.333,43.34 39.076,43.973 38.824,44.337C38.384,44.973 37.884,45.403 37.565,45.686C37.088,46.11 37.01,46.147 36.855,46.256L36.829,46.272C36.815,46.295 36.798,46.31 36.805,46.339C36.818,46.396 36.874,46.432 36.93,46.419L36.957,46.403C37.141,46.333 37.417,46.094 37.896,45.681C38.291,45.339 38.677,44.966 39.058,44.294C39.275,43.908 39.588,43.301 39.671,42.86C39.79,42.23 39.859,41.661 39.823,41.359L39.828,41.138C39.838,41.101 39.836,41.073 39.824,41.05L39.815,41.031C39.889,40.955 40.188,41.706 40.286,43.077C40.363,44.164 40.346,45.418 40.144,46.101L40.167,46.107ZM26.641,37.593C26.69,36.533 27.169,35.681 27.817,34.989C28.413,34.351 29.315,33.907 29.504,33.906C29.556,33.906 29.375,34.095 29.304,34.168C29.226,34.25 29.224,34.288 29.08,34.445C28.909,34.63 28.781,34.992 28.822,35.178C28.878,35.434 29.007,35.545 29.098,35.641C29.213,35.762 29.236,35.809 29.524,35.892C29.768,35.963 30.154,36.071 30.55,35.97C30.655,35.944 30.813,35.934 30.967,35.876C31.266,35.764 31.652,35.627 32.021,35.577C32.513,35.511 32.971,35.558 33.123,35.627L33.568,35.721C34.163,35.853 35.503,36.645 35.914,38C36.004,38.298 36.142,38.633 36.218,38.97C36.328,39.458 36.469,39.893 36.849,40.27C37.075,40.494 37.38,40.552 37.681,40.631C38.22,40.771 38.784,40.763 39.092,40.705L39.321,40.671C39.318,40.742 39.275,40.765 39.239,40.789L39.027,40.892C38.728,41.056 38.082,41.123 37.522,41.162C37.074,41.194 36.393,41.141 35.97,41.012C35.23,40.784 34.669,40.438 34.303,40.22C33.754,39.893 33.695,39.83 33.544,39.715L33.522,39.696C33.496,39.689 33.476,39.677 33.45,39.692C33.399,39.722 33.382,39.787 33.411,39.836L33.435,39.857C33.557,40.011 33.869,40.202 34.408,40.533C34.853,40.807 35.325,41.062 36.082,41.221C36.515,41.312 37.188,41.426 37.633,41.372C38.27,41.294 38.834,41.187 39.111,41.062L39.323,41C39.361,40.998 39.387,40.988 39.405,40.97L39.421,40.955C39.515,41.003 38.89,41.515 37.613,42.023C36.6,42.425 35.4,42.789 34.688,42.803L34.689,42.827C33.725,42.943 32.683,42.895 32.222,42.801C31.569,42.668 30.924,42.486 30.534,42.383C29.969,42.235 29.403,41.905 28.77,41.523C27.423,40.712 26.58,38.882 26.641,37.593M35.948,30.435C36.367,28.919 37.901,27.615 39.158,27.325C40.193,27.087 41.142,27.319 41.984,27.755C42.758,28.157 43.429,28.907 43.481,29.088C43.495,29.138 43.264,29.015 43.175,28.967C43.075,28.913 43.038,28.922 42.848,28.826C42.623,28.711 42.24,28.685 42.073,28.774C41.841,28.897 41.769,29.052 41.701,29.165C41.615,29.308 41.576,29.344 41.574,29.643C41.572,29.897 41.571,30.298 41.775,30.653C41.829,30.746 41.881,30.896 41.978,31.028C42.167,31.286 42.403,31.621 42.551,31.963C42.747,32.418 42.825,32.872 42.799,33.037L42.829,33.491C42.863,34.099 42.461,35.603 41.267,36.364C41.004,36.531 40.718,36.755 40.415,36.919C39.974,37.157 39.593,37.409 39.333,37.876C39.178,38.155 39.205,38.464 39.21,38.775C39.22,39.332 39.38,39.874 39.519,40.154L39.614,40.366C39.544,40.382 39.51,40.346 39.478,40.318L39.322,40.142C39.083,39.898 38.844,39.294 38.655,38.766C38.504,38.343 38.371,37.673 38.382,37.231C38.401,36.456 38.584,35.823 38.695,35.412C38.861,34.796 38.906,34.722 38.976,34.545L38.989,34.518C38.988,34.491 38.994,34.469 38.973,34.448C38.93,34.408 38.864,34.408 38.824,34.45L38.81,34.478C38.695,34.637 38.595,34.989 38.421,35.597C38.278,36.1 38.16,36.623 38.211,37.394C38.24,37.836 38.311,38.515 38.484,38.929C38.73,39.522 38.985,40.036 39.18,40.269L39.297,40.456C39.309,40.492 39.326,40.515 39.348,40.527L39.367,40.538C39.347,40.642 38.684,40.178 37.851,39.085C37.19,38.218 36.516,37.161 36.311,36.479L36.288,36.486C35.917,35.59 35.682,34.574 35.648,34.104C35.6,33.44 35.602,32.769 35.595,32.366C35.585,31.782 35.751,31.148 35.948,30.435M10.001,60L70.001,60L70.001,20L10.001,20L10.001,60Z" style="fill-rule:nonzero;"/>
        </g>
    </g>
</svg>
