<?xml version="1.0" standalone="no"?>
<!DOCTYPE svg PUBLIC "-//W3C//DTD SVG 1.1//EN" "http://www.w3.org/Graphics/SVG/1.1/DTD/svg11.dtd">
<svg width="100%" height="100%" viewBox="0 0 258 173" version="1.1" xmlns="http://www.w3.org/2000/svg" xmlns:xlink="http://www.w3.org/1999/xlink" xml:space="preserve" style="fill-rule:evenodd;clip-rule:evenodd;stroke-linejoin:round;stroke-miterlimit:1.41421;fill:#898b8e;">
    <g id="Page 9" transform="matrix(4.16667,0,0,4.16667,-38,-80)">
        <g id="Layer 1">
            <path d="M70,40L10,40L10,60L70,60L70,40ZM69,59L11,59L11,41L69,41L69,59Z" style="fill-rule:nonzero;"/>
            <path d="M32.005,30.182L30.983,29.398L29.962,30.182L30.355,28.919L29.33,28.14L30.595,28.142L30.983,26.877L31.371,28.142L32.636,28.139L31.611,28.918L32.005,30.182ZM30.505,34.942L29.483,34.159L28.462,34.943L28.855,33.679L27.83,32.9L29.095,32.903L29.483,31.636L29.871,32.902L31.136,32.899L30.111,33.679L30.505,34.942ZM25.958,27.207L26.351,25.943L25.326,25.164L26.591,25.167L26.979,23.901L27.367,25.167L28.632,25.164L27.607,25.943L28.001,27.207L26.979,26.423L25.958,27.207ZM25.095,33.679L25.488,34.942L24.467,34.159L23.445,34.943L23.839,33.679L22.814,32.9L24.078,32.903L24.466,31.636L24.855,32.902L26.12,32.899L25.095,33.679ZM23.988,30.182L22.967,29.398L21.945,30.182L22.339,28.919L21.314,28.14L22.578,28.142L22.966,26.877L23.355,28.142L24.62,28.139L23.595,28.918L23.988,30.182ZM23.058,37.521C18.904,37.521 15.537,34.154 15.537,30.001C15.537,25.847 18.904,22.48 23.058,22.48C23.927,22.48 24.762,22.629 25.539,22.901C21.751,23.056 18.727,26.174 18.727,30.001C18.727,33.827 21.751,36.945 25.539,37.1C24.762,37.372 23.927,37.521 23.058,37.521M10,40.001L70,40.001L70,20.001L10,20.001L10,40.001Z" style="fill-rule:nonzero;"/>
        </g>
    </g>
</svg>
