<?xml version="1.0" standalone="no"?>
<!DOCTYPE svg PUBLIC "-//W3C//DTD SVG 1.1//EN" "http://www.w3.org/Graphics/SVG/1.1/DTD/svg11.dtd">
<svg width="100%" height="100%" viewBox="0 0 258 173" version="1.1" xmlns="http://www.w3.org/2000/svg" xmlns:xlink="http://www.w3.org/1999/xlink" xml:space="preserve" style="fill-rule:evenodd;clip-rule:evenodd;stroke-linejoin:round;stroke-miterlimit:1.41421;fill:#898b8e;">
    <g id="Page 1" transform="matrix(4.16667,0,0,4.16667,-38,-80)">
        <g id="Layer 1">
            <path d="M41.774,23.296L70,23.296L70,20L41.774,20L41.774,23.296ZM10,41.648L39.066,41.648L39.066,20L10,20L10,41.648ZM36.326,22.544L35.558,21.928L36.522,21.9L36.842,20.944L37.162,21.9L38.126,21.928L37.362,22.544L37.634,23.516L36.842,22.94L36.05,23.516L36.326,22.544ZM31.493,22.544L30.729,21.928L31.693,21.9L32.013,20.944L32.333,21.9L33.298,21.928L32.534,22.544L32.81,23.516L32.013,22.94L31.221,23.516L31.493,22.544ZM26.661,22.544L25.897,21.928L26.865,21.9L27.181,20.944L27.505,21.9L28.465,21.928L27.697,22.544L27.973,23.516L27.181,22.94L26.389,23.516L26.661,22.544ZM21.833,22.544L21.069,21.928L22.029,21.9L22.353,20.944L22.669,21.9L23.633,21.928L22.869,22.544L23.145,23.516L22.353,22.94L21.561,23.516L21.833,22.544ZM17,22.544L16.236,21.928L17.2,21.9L17.516,20.944L17.841,21.9L18.805,21.928L18.041,22.544L18.313,23.516L17.516,22.94L16.724,23.516L17,22.544ZM12.172,22.544L11.404,21.928L12.368,21.9L12.688,20.944L13.008,21.9L13.972,21.928L13.208,22.544L13.48,23.516L12.688,22.94L11.896,23.516L12.172,22.544ZM34.186,25.364L33.422,24.744L34.386,24.72L34.706,23.76L35.026,24.72L35.99,24.744L35.222,25.364L35.498,26.336L34.706,25.76L33.914,26.336L34.186,25.364ZM29.213,25.364L28.453,24.744L29.417,24.72L29.733,23.76L30.057,24.72L31.017,24.744L30.253,25.364L30.529,26.336L29.733,25.76L28.941,26.336L29.213,25.364ZM24.245,25.364L23.481,24.744L24.445,24.72L24.769,23.76L25.089,24.72L26.049,24.744L25.285,25.364L25.561,26.336L24.769,25.76L23.973,26.336L24.245,25.364ZM19.277,25.364L18.513,24.744L19.477,24.72L19.797,23.76L20.117,24.72L21.081,24.744L20.317,25.364L20.589,26.336L19.797,25.76L19.005,26.336L19.277,25.364ZM14.308,25.364L13.544,24.744L14.508,24.72L14.828,23.76L15.148,24.72L16.108,24.744L15.348,25.364L15.62,26.336L14.828,25.76L14.036,26.336L14.308,25.364ZM36.326,28.18L35.558,27.564L36.522,27.54L36.842,26.58L37.162,27.54L38.126,27.564L37.362,28.18L37.634,29.156L36.842,28.58L36.05,29.156L36.326,28.18ZM31.493,28.18L30.729,27.564L31.693,27.54L32.013,26.58L32.333,27.54L33.298,27.564L32.534,28.18L32.81,29.156L32.013,28.58L31.221,29.156L31.493,28.18ZM26.661,28.18L25.897,27.564L26.865,27.54L27.181,26.58L27.505,27.54L28.465,27.564L27.697,28.18L27.973,29.156L27.181,28.58L26.389,29.156L26.661,28.18ZM21.833,28.18L21.069,27.564L22.029,27.54L22.353,26.58L22.669,27.54L23.633,27.564L22.869,28.18L23.145,29.156L22.353,28.58L21.561,29.156L21.833,28.18ZM17,28.18L16.236,27.564L17.2,27.54L17.516,26.58L17.841,27.54L18.805,27.564L18.041,28.18L18.313,29.156L17.516,28.58L16.724,29.156L17,28.18ZM12.172,28.18L11.404,27.564L12.368,27.54L12.688,26.58L13.008,27.54L13.972,27.564L13.208,28.18L13.48,29.156L12.688,28.58L11.896,29.156L12.172,28.18ZM34.186,31.004L33.422,30.388L34.386,30.356L34.706,29.4L35.026,30.356L35.99,30.388L35.222,31.004L35.498,31.972L34.706,31.4L33.914,31.972L34.186,31.004ZM29.213,31.004L28.453,30.388L29.417,30.356L29.733,29.4L30.057,30.356L31.017,30.388L30.253,31.004L30.529,31.972L29.733,31.4L28.941,31.972L29.213,31.004ZM24.245,31.004L23.481,30.388L24.445,30.356L24.769,29.4L25.089,30.356L26.049,30.388L25.285,31.004L25.561,31.972L24.769,31.4L23.973,31.972L24.245,31.004ZM19.277,31.004L18.513,30.388L19.477,30.356L19.797,29.4L20.117,30.356L21.081,30.388L20.317,31.004L20.589,31.972L19.797,31.4L19.005,31.972L19.277,31.004ZM14.308,31.004L13.544,30.388L14.508,30.356L14.828,29.4L15.148,30.356L16.108,30.388L15.348,31.004L15.62,31.972L14.828,31.4L14.036,31.972L14.308,31.004ZM36.326,33.82L35.558,33.204L36.522,33.176L36.842,32.22L37.162,33.176L38.126,33.204L37.362,33.82L37.634,34.796L36.842,34.22L36.05,34.796L36.326,33.82ZM31.493,33.82L30.729,33.204L31.693,33.176L32.013,32.22L32.333,33.176L33.298,33.204L32.534,33.82L32.81,34.796L32.013,34.22L31.221,34.796L31.493,33.82ZM26.661,33.82L25.897,33.204L26.865,33.176L27.181,32.22L27.505,33.176L28.465,33.204L27.697,33.82L27.973,34.796L27.181,34.22L26.389,34.796L26.661,33.82ZM21.833,33.82L21.069,33.204L22.029,33.176L22.353,32.22L22.669,33.176L23.633,33.204L22.869,33.82L23.145,34.796L22.353,34.22L21.561,34.796L21.833,33.82ZM17,33.82L16.236,33.204L17.2,33.176L17.516,32.22L17.841,33.176L18.805,33.204L18.041,33.82L18.313,34.796L17.516,34.22L16.724,34.796L17,33.82ZM12.172,33.82L11.404,33.204L12.368,33.176L12.688,32.22L13.008,33.176L13.972,33.204L13.208,33.82L13.48,34.796L12.688,34.22L11.896,34.796L12.172,33.82ZM34.186,36.64L33.422,36.024L34.386,36L34.706,35.036L35.026,36L35.99,36.024L35.222,36.64L35.498,37.616L34.706,37.04L33.914,37.616L34.186,36.64ZM29.213,36.64L28.453,36.024L29.417,36L29.733,35.036L30.057,36L31.017,36.024L30.253,36.64L30.529,37.616L29.733,37.04L28.941,37.616L29.213,36.64ZM24.245,36.64L23.481,36.024L24.445,36L24.769,35.036L25.089,36L26.049,36.024L25.285,36.64L25.561,37.616L24.769,37.04L23.973,37.616L24.245,36.64ZM19.277,36.64L18.513,36.024L19.477,36L19.797,35.036L20.117,36L21.081,36.024L20.317,36.64L20.589,37.616L19.797,37.04L19.005,37.616L19.277,36.64ZM14.308,36.64L13.544,36.024L14.508,36L14.828,35.036L15.148,36L16.108,36.024L15.348,36.64L15.62,37.616L14.828,37.04L14.036,37.616L14.308,36.64ZM36.326,39.46L35.558,38.844L36.522,38.816L36.842,37.856L37.162,38.816L38.126,38.844L37.362,39.46L37.634,40.436L36.842,39.856L36.05,40.436L36.326,39.46ZM31.493,39.46L30.729,38.844L31.693,38.816L32.013,37.856L32.333,38.816L33.298,38.844L32.534,39.46L32.81,40.436L32.013,39.856L31.221,40.436L31.493,39.46ZM26.661,39.46L25.897,38.844L26.865,38.816L27.181,37.856L27.505,38.816L28.465,38.844L27.697,39.46L27.973,40.436L27.181,39.856L26.389,40.436L26.661,39.46ZM21.833,39.46L21.069,38.844L22.029,38.816L22.353,37.856L22.669,38.816L23.633,38.844L22.869,39.46L23.145,40.436L22.353,39.856L21.561,40.436L21.833,39.46ZM17,39.46L16.236,38.844L17.2,38.816L17.516,37.856L17.841,38.816L18.805,38.844L18.041,39.46L18.313,40.436L17.516,39.856L16.724,40.436L17,39.46ZM12.172,39.46L11.404,38.844L12.368,38.816L12.688,37.856L13.008,38.816L13.972,38.844L13.208,39.46L13.48,40.436L12.688,39.856L11.896,40.436L12.172,39.46ZM41.774,29.416L70,29.416L70,26.12L41.774,26.12L41.774,29.416ZM41.774,35.532L70,35.532L70,32.236L41.774,32.236L41.774,35.532ZM41.774,41.648L70,41.648L70,38.352L41.774,38.352L41.774,41.648ZM10,47.764L70,47.764L70,44.468L10,44.468L10,47.764ZM10,53.884L70,53.884L70,50.588L10,50.588L10,53.884ZM10,60L70,60L70,56.704L10,56.704L10,60Z" style="fill-rule:nonzero;"/>
        </g>
    </g>
</svg>
